<?xml version="1.0" standalone="no"?>
<!DOCTYPE svg PUBLIC "-//W3C//DTD SVG 20010904//EN"
 "http://www.w3.org/TR/2001/REC-SVG-20010904/DTD/svg10.dtd">
<svg version="1.0" xmlns="http://www.w3.org/2000/svg"
 width="2333.000000pt" height="2333.000000pt" viewBox="0 0 2333.000000 2333.000000"
 preserveAspectRatio="xMidYMid meet">
<metadata>
Created by potrace 1.14, written by Peter Selinger 2001-2017
</metadata>
<g transform="translate(0.000000,2333.000000) scale(0.100000,-0.100000)"
fill="#000000" stroke="none">
<path d="M11784 21150 c-290 -40 -527 -244 -604 -522 -11 -40 -20 -82 -20 -94
0 -24 -23 -34 -78 -34 -27 0 -35 5 -40 23 -3 12 -26 62 -51 112 -83 162 -236
292 -416 352 -71 24 -95 27 -220 28 -128 0 -148 -2 -229 -29 -142 -47 -284
-153 -368 -274 -76 -111 -128 -272 -128 -401 l0 -59 -52 -16 c-29 -8 -54 -11
-56 -6 -8 23 -84 132 -118 170 -44 49 -137 117 -211 154 -190 95 -449 94 -641
-3 -243 -123 -393 -362 -396 -631 0 -52 3 -116 7 -142 l8 -48 -45 -22 -46 -22
-62 65 c-146 151 -329 229 -536 229 -106 0 -202 -23 -300 -70 -189 -90 -308
-224 -378 -425 -26 -74 -28 -91 -28 -230 0 -136 3 -157 26 -222 l26 -71 -39
-26 c-21 -14 -41 -26 -45 -26 -3 0 -34 21 -67 46 -130 97 -234 134 -403 141
-153 7 -239 -11 -367 -74 -74 -38 -108 -63 -177 -132 -146 -146 -210 -302
-210 -514 0 -130 16 -199 72 -320 l42 -87 -33 -34 -33 -34 -76 39 c-276 140
-604 95 -826 -112 -127 -118 -202 -266 -227 -443 -26 -185 34 -390 158 -544
19 -23 33 -46 31 -50 -2 -4 -14 -23 -27 -43 l-25 -36 -75 26 c-68 23 -92 25
-221 25 -132 0 -152 -2 -225 -27 -113 -40 -209 -100 -290 -182 -135 -138 -196
-281 -203 -480 -5 -148 11 -223 74 -354 37 -77 61 -109 129 -178 l84 -85 -22
-44 -21 -44 -55 8 c-380 50 -719 -170 -819 -530 -27 -98 -24 -291 6 -388 57
-180 174 -333 320 -417 26 -14 48 -27 50 -28 1 -1 -3 -25 -10 -54 l-11 -51
-72 0 c-201 0 -430 -118 -552 -283 -103 -141 -147 -272 -146 -442 0 -287 152
-528 413 -654 46 -23 89 -41 95 -41 7 0 9 -18 5 -52 l-5 -51 -69 -14 c-353
-71 -597 -397 -573 -761 11 -169 76 -317 195 -443 111 -118 265 -203 406 -224
l47 -7 -3 -50 -3 -49 -58 -24 c-231 -93 -391 -291 -443 -545 -43 -215 26 -452
179 -616 141 -151 293 -225 501 -242 l79 -7 12 -43 13 -43 -56 -36 c-75 -47
-100 -68 -165 -142 -190 -213 -233 -541 -104 -797 91 -180 234 -307 417 -369
85 -29 216 -47 271 -39 26 4 39 3 39 -5 0 -6 9 -11 20 -11 18 0 20 -7 20 -66
0 -64 -2 -68 -54 -140 -165 -225 -189 -509 -66 -759 75 -152 187 -262 345
-335 102 -48 200 -70 314 -70 90 0 91 0 91 -25 0 -18 5 -25 20 -25 17 0 20 -7
20 -40 0 -33 3 -40 20 -40 13 0 20 -7 20 -20 0 -13 7 -20 20 -20 26 0 26 -7
-12 -114 -31 -87 -32 -98 -32 -236 0 -131 2 -153 27 -225 39 -118 91 -199 188
-297 73 -73 101 -93 180 -131 117 -56 201 -77 311 -77 113 0 148 -7 148 -31 0
-12 7 -19 20 -19 13 0 20 -7 20 -20 0 -15 7 -20 25 -20 18 0 25 -5 25 -20 0
-13 7 -20 20 -20 13 0 20 -7 20 -20 0 -13 7 -20 20 -20 17 0 20 -7 20 -45 0
-41 2 -45 25 -45 25 0 25 0 25 -93 0 -118 26 -224 82 -337 34 -68 60 -103 133
-175 103 -104 202 -162 331 -195 92 -24 259 -27 347 -6 54 13 57 12 57 -5 0
-12 7 -19 20 -19 13 0 20 -7 20 -20 0 -13 7 -20 20 -20 13 0 20 -7 20 -20 0
-17 7 -20 45 -20 41 0 45 -2 45 -25 0 -18 5 -25 20 -25 13 0 20 -7 20 -20 0
-17 7 -20 40 -20 l40 0 0 -40 c0 -22 4 -40 8 -40 5 0 15 -26 21 -57 31 -138
129 -298 239 -389 212 -175 501 -222 750 -121 59 24 62 25 62 6 0 -14 7 -19
25 -19 20 0 25 -5 25 -25 0 -24 3 -25 60 -25 53 0 60 -2 60 -20 0 -18 7 -20
65 -20 58 0 65 -2 65 -20 0 -13 7 -20 19 -20 13 0 20 -9 25 -30 10 -51 71
-172 119 -237 90 -121 251 -227 407 -269 97 -26 263 -24 363 4 93 26 183 70
254 123 62 46 103 52 103 14 0 -25 1 -25 80 -25 73 0 80 -2 80 -20 0 -17 7
-20 38 -20 38 0 39 -1 80 -83 77 -155 187 -262 347 -338 210 -100 474 -89 675
28 69 41 200 159 228 205 9 15 24 28 34 28 11 0 18 7 18 20 0 18 7 20 88 20
l88 0 32 -72 c115 -261 376 -428 667 -428 324 0 599 201 696 508 17 54 27 72
41 72 11 0 18 7 18 20 0 17 7 20 39 20 36 0 39 -2 55 -45 10 -25 39 -78 65
-117 247 -376 774 -439 1101 -131 154 144 220 294 242 547 3 25 9 31 45 41
l43 13 31 -52 c134 -219 364 -347 624 -347 203 0 363 67 510 215 98 99 146
177 185 301 26 82 37 245 22 323 l-10 53 44 22 44 21 63 -65 c204 -210 497
-280 771 -182 220 78 397 271 457 500 31 118 29 271 -5 386 -14 48 -26 89 -26
91 0 2 18 15 40 30 l41 27 44 -39 c25 -22 75 -55 113 -75 367 -191 815 -48
992 318 56 116 73 191 73 320 1 129 -23 229 -80 338 l-36 68 35 35 34 35 77
-40 c110 -56 199 -76 332 -75 126 0 204 17 310 68 190 90 328 255 386 461 29
102 32 268 6 365 -26 94 -75 196 -130 268 l-49 63 26 40 c15 21 30 39 35 39 4
0 34 -9 66 -20 128 -44 296 -46 435 -4 183 54 352 196 434 365 62 127 79 212
73 359 -7 195 -75 350 -214 487 l-73 72 22 46 c18 38 26 45 43 40 11 -3 61 -8
110 -12 267 -17 526 121 664 355 72 122 108 275 98 414 -9 111 -23 161 -78
273 -59 122 -131 205 -237 276 -42 28 -79 53 -81 54 -2 2 2 26 9 53 l11 49 97
6 c184 9 331 76 467 212 140 140 205 300 205 505 0 300 -162 546 -440 667 -41
18 -76 36 -77 40 -2 4 1 28 5 52 l7 44 70 14 c263 54 482 264 551 528 26 102
24 266 -5 370 -73 262 -282 459 -542 513 l-78 16 -6 49 c-4 27 -3 52 1 56 5 5
36 18 70 30 108 40 246 147 314 246 183 266 174 624 -21 867 -69 87 -150 153
-244 198 -98 48 -173 68 -286 77 l-87 6 -11 37 c-6 21 -11 44 -11 51 0 8 30
32 66 54 81 49 179 151 232 242 213 360 72 832 -303 1013 -123 59 -199 73
-361 68 l-136 -5 -20 42 -20 42 78 79 c90 91 143 174 181 289 25 72 27 94 27
225 0 133 -2 152 -28 225 -67 195 -187 330 -371 420 -101 50 -207 75 -315 75
-76 0 -203 -23 -260 -46 -33 -14 -35 -14 -52 8 -43 57 -43 61 1 119 233 308
200 724 -79 982 -127 118 -270 176 -450 184 -147 6 -234 -11 -355 -71 l-90
-45 -36 35 -36 35 41 82 c55 110 76 200 76 329 0 206 -65 364 -210 508 -143
144 -302 210 -505 210 -169 0 -316 -48 -441 -145 -31 -25 -61 -45 -66 -45 -5
0 -26 11 -47 26 l-39 25 26 77 c23 68 26 93 26 222 0 133 -2 151 -28 225 -68
195 -187 330 -371 420 -194 96 -418 99 -612 10 -96 -44 -146 -80 -226 -161
l-67 -68 -45 22 -46 22 8 63 c48 378 -165 708 -524 809 -109 30 -267 30 -376
0 -205 -58 -356 -182 -462 -379 0 -1 -24 5 -51 13 l-51 15 -6 92 c-20 299
-213 551 -493 643 -81 27 -101 29 -229 29 -125 -1 -149 -4 -220 -28 -114 -38
-199 -91 -285 -177 -79 -79 -126 -150 -165 -247 -26 -63 -39 -70 -101 -58 -27
5 -34 11 -34 28 0 39 -39 166 -70 226 -67 133 -204 266 -337 328 -120 55 -275
80 -399 63z m186 -339 c144 -75 156 -271 22 -366 -39 -27 -52 -30 -117 -30
-65 0 -78 3 -117 30 -80 57 -114 153 -84 243 40 120 185 180 296 123z m-1589
-123 c56 -16 114 -70 134 -123 61 -159 -76 -323 -241 -286 -170 38 -222 258
-88 369 60 50 122 62 195 40z m3112 1 c156 -43 198 -262 71 -367 -132 -109
-330 -24 -342 147 -11 151 124 261 271 220z m-4582 -422 c116 -62 147 -224 61
-319 -108 -120 -287 -96 -353 47 -46 100 5 235 106 281 49 22 135 17 186 -9z
m6147 -10 c82 -54 115 -172 73 -262 -66 -143 -245 -167 -353 -47 -86 96 -55
257 62 320 63 33 159 29 218 -11z m-3703 -603 c46 -21 91 -82 100 -133 15 -90
-47 -187 -134 -211 -185 -50 -317 174 -183 308 62 62 136 75 217 36z m1352 -5
c68 -26 116 -97 116 -175 0 -137 -143 -224 -268 -164 -67 33 -100 86 -100 165
0 50 5 69 27 103 16 23 45 50 65 61 42 22 116 27 160 10z m-5224 -35 c81 -41
120 -102 121 -189 1 -113 -75 -200 -186 -212 -146 -15 -263 118 -228 259 15
58 62 115 114 139 51 23 136 24 179 3z m8966 -4 c144 -73 157 -276 22 -365
-47 -32 -131 -43 -186 -25 -75 25 -145 122 -145 201 0 74 50 152 119 189 49
26 140 26 190 0z m-6442 -181 c50 -24 92 -86 100 -149 7 -53 -33 -136 -82
-169 -42 -28 -118 -38 -168 -22 -74 25 -137 131 -122 204 27 128 155 193 272
136z m4061 -40 c103 -50 133 -191 60 -284 -45 -58 -148 -82 -221 -51 -44 18
-95 78 -103 121 -31 165 117 285 264 214z m-2644 -259 c107 -27 190 -74 266
-150 67 -67 128 -168 149 -247 11 -41 13 -43 50 -43 38 0 39 1 56 53 60 186
206 325 400 383 38 11 93 18 150 18 291 0 541 -221 572 -506 6 -55 6 -56 42
-63 19 -4 37 -3 38 2 15 43 90 147 145 198 111 106 236 155 393 155 167 0 288
-51 405 -169 116 -118 170 -247 170 -414 l0 -78 32 -13 c31 -13 32 -13 68 33
88 112 209 187 345 216 88 18 142 19 230 0 234 -49 411 -234 452 -473 14 -84
12 -140 -13 -252 -4 -20 1 -28 26 -43 l30 -18 52 46 c63 57 166 110 250 130
359 84 708 -192 708 -560 0 -81 -21 -178 -51 -236 -11 -23 -19 -42 -17 -42 2
-1 15 -13 30 -26 l27 -23 28 20 c50 35 128 70 194 87 86 23 240 16 323 -14
336 -120 488 -500 325 -810 -16 -31 -36 -65 -44 -76 -13 -18 -12 -23 8 -49
l23 -29 67 27 c164 65 358 48 515 -46 76 -46 171 -150 210 -231 48 -100 65
-184 59 -292 -9 -138 -51 -243 -145 -354 -45 -52 -45 -54 -29 -80 18 -29 17
-29 133 -10 230 36 477 -97 587 -317 56 -111 73 -277 42 -394 -33 -126 -121
-255 -224 -331 -32 -24 -33 -26 -23 -59 l12 -35 73 3 c261 12 505 -175 573
-438 22 -87 15 -243 -14 -324 -47 -129 -136 -238 -253 -308 -33 -20 -66 -39
-71 -40 -7 -3 -8 -18 -4 -38 6 -35 6 -35 93 -52 326 -63 533 -377 458 -696
-38 -161 -161 -316 -305 -385 -41 -19 -90 -38 -107 -42 -30 -6 -33 -10 -33
-45 l0 -38 66 -22 c140 -47 269 -161 335 -298 106 -218 61 -480 -111 -652 -98
-98 -251 -170 -362 -170 -29 0 -38 -4 -38 -17 0 -10 -3 -27 -6 -39 -5 -18 4
-25 51 -49 121 -59 241 -204 286 -345 28 -85 30 -230 5 -315 -44 -149 -145
-280 -267 -348 -98 -54 -153 -69 -274 -76 l-109 -6 -10 -34 c-8 -28 -7 -35 10
-44 10 -6 47 -37 81 -70 116 -111 179 -274 170 -437 -12 -210 -129 -391 -312
-481 -132 -65 -249 -82 -379 -54 -38 8 -70 14 -71 12 -1 -1 -9 -15 -18 -30
l-18 -28 50 -55 c92 -104 141 -237 141 -384 0 -161 -52 -283 -169 -401 -84
-83 -160 -127 -271 -155 -97 -24 -242 -15 -339 21 l-74 28 -23 -26 -23 -27 35
-57 c57 -95 76 -158 82 -268 6 -125 -8 -192 -59 -295 -46 -92 -108 -164 -185
-215 -198 -131 -430 -136 -636 -12 l-55 34 -27 -24 -27 -23 25 -63 c111 -277
-10 -595 -276 -725 -95 -46 -160 -62 -258 -62 -138 0 -269 48 -377 139 -63 52
-63 52 -93 36 -22 -11 -29 -21 -26 -33 74 -235 -24 -511 -231 -648 -93 -62
-200 -94 -313 -94 -54 0 -121 7 -154 15 -121 32 -250 119 -327 223 -23 31 -26
32 -56 22 l-33 -12 0 -82 c0 -460 -503 -736 -886 -487 -75 48 -139 115 -186
192 -20 34 -38 65 -40 71 -2 6 -18 7 -39 3 l-35 -6 -12 -77 c-34 -221 -207
-409 -427 -467 -75 -19 -204 -19 -280 0 -190 49 -354 203 -411 388 -17 56 -18
57 -55 57 -36 0 -39 -2 -50 -42 -34 -131 -155 -282 -274 -344 -107 -56 -159
-69 -280 -69 -121 0 -173 13 -280 69 -157 81 -294 297 -295 464 0 27 -4 32
-24 32 -13 0 -30 2 -38 5 -9 4 -23 -13 -40 -47 -82 -167 -249 -284 -444 -310
-206 -28 -426 72 -543 247 -66 99 -93 184 -100 314 l-6 104 -29 10 c-27 9 -32
7 -55 -24 -78 -106 -209 -192 -341 -225 -86 -22 -231 -14 -317 16 -213 74
-361 266 -388 500 -6 49 1 112 20 205 6 27 3 32 -27 47 -33 15 -34 15 -63 -15
-114 -115 -299 -177 -473 -155 -375 46 -608 451 -457 795 l23 51 -22 21 c-28
27 -38 26 -84 -4 -220 -146 -526 -112 -718 79 -95 96 -144 197 -164 339 -18
126 20 289 91 387 l30 41 -23 29 c-14 18 -29 27 -38 23 -194 -79 -354 -80
-512 -4 -136 66 -249 191 -297 332 -66 191 -19 423 115 568 l51 56 -17 28 c-9
15 -19 29 -21 31 -2 3 -29 -2 -59 -10 -176 -46 -394 18 -530 155 -112 112
-170 252 -170 406 0 159 53 289 164 401 39 39 80 76 90 82 17 8 18 15 10 43
l-10 34 -109 6 c-166 9 -280 58 -388 166 -107 107 -158 224 -165 379 -5 116
11 191 61 293 41 85 149 195 235 239 62 33 68 43 56 88 -5 18 -16 22 -64 27
-175 19 -346 138 -433 304 -118 224 -77 494 101 672 69 68 170 129 250 150 40
11 42 14 42 49 0 37 0 37 -70 61 -228 78 -390 305 -390 546 0 279 213 523 497
568 53 8 73 16 73 27 0 8 3 24 6 35 4 16 -7 26 -63 55 -160 82 -275 260 -298
460 -9 82 17 211 61 300 98 199 324 331 544 318 58 -3 60 -2 70 26 14 41 16
38 -48 88 -73 56 -154 174 -183 266 -47 149 -33 309 38 445 73 139 190 237
340 284 76 23 94 25 196 20 61 -3 123 -9 137 -12 21 -5 28 -1 43 25 l19 31
-39 40 c-50 51 -97 129 -125 205 -29 81 -36 237 -14 323 88 342 451 529 776
398 l59 -24 26 27 26 27 -36 54 c-54 83 -85 191 -85 302 0 165 55 301 166 411
110 111 246 166 411 166 111 0 219 -31 301 -85 l54 -35 30 21 c20 15 27 26 22
38 -46 109 -57 160 -58 256 0 76 5 117 22 170 85 275 354 448 634 407 107 -15
229 -73 301 -141 l53 -50 33 20 c21 13 31 25 27 35 -16 43 -28 155 -22 217 45
484 630 702 972 362 39 -38 77 -80 85 -91 13 -20 16 -21 47 -8 l32 14 0 81 c0
321 256 579 575 579 207 0 416 -124 504 -298 25 -50 36 -62 55 -62 41 0 56 11
56 39 0 101 77 269 165 356 148 148 352 206 549 155z m-2739 -141 c22 -6 56
-28 76 -48 86 -86 70 -220 -34 -289 -107 -71 -260 -2 -282 129 -14 83 41 176
120 204 49 17 69 18 120 4z m6683 -92 c75 -49 103 -157 62 -237 -39 -77 -121
-113 -215 -96 -43 8 -103 59 -121 103 -29 68 -9 168 43 215 59 54 162 61 231
15z m-9142 -192 c162 -95 118 -349 -67 -383 -135 -25 -248 67 -249 201 0 70
17 111 63 155 69 67 167 77 253 27z m11519 1 c114 -67 134 -223 42 -323 -101
-110 -274 -86 -341 48 -55 112 -14 232 98 286 64 30 136 27 201 -11z m-10211
-409 c126 -69 115 -267 -18 -328 -96 -43 -202 -2 -247 96 -47 102 9 221 121
254 45 13 95 5 144 -22z m8994 -86 c46 -23 67 -46 87 -94 21 -52 19 -96 -10
-153 -46 -91 -144 -127 -237 -86 -137 60 -150 251 -23 328 51 30 129 32 183 5z
m-11397 -616 c64 -45 91 -104 87 -187 -3 -57 -8 -73 -34 -105 -83 -102 -201
-122 -296 -50 -126 97 -110 281 31 358 56 30 157 23 212 -16z m13727 1 c26
-18 51 -47 67 -79 92 -185 -97 -374 -282 -282 -157 78 -156 293 2 379 22 12
50 16 101 14 59 -3 78 -8 112 -32z m-12426 -146 c50 -14 97 -55 119 -105 75
-165 -113 -329 -268 -233 -101 62 -117 204 -33 288 53 53 112 69 182 50z
m11138 -130 c48 -24 87 -80 96 -136 21 -137 -125 -252 -254 -199 -75 32 -114
90 -116 170 -1 140 147 230 274 165z m-12028 -910 c76 -21 138 -102 138 -180
0 -48 -31 -110 -69 -143 -138 -115 -344 15 -300 189 20 77 96 140 174 143 11
1 37 -4 57 -9z m14183 -77 c150 -75 161 -286 19 -369 -89 -52 -187 -41 -258
29 -89 90 -87 217 6 305 62 59 156 73 233 35z m-15522 1 c152 -77 166 -285 24
-368 -86 -51 -177 -43 -249 22 -51 46 -68 85 -68 157 0 88 49 161 130 194 39
15 128 13 163 -5z m14199 -54 c136 -38 180 -210 79 -311 -67 -67 -163 -74
-240 -18 -44 31 -66 66 -76 120 -15 81 41 176 120 204 49 17 69 18 117 5z
m-13504 -1073 c86 -56 108 -186 46 -265 -105 -131 -316 -75 -332 88 -8 90 36
165 118 199 42 18 124 7 168 -22z m14178 -122 c109 -32 162 -148 115 -250 -45
-98 -151 -139 -247 -96 -158 72 -136 300 34 351 39 12 43 12 98 -5z m-15510
-180 c90 -53 124 -177 76 -271 -99 -194 -392 -125 -392 93 0 165 172 262 316
178z m16825 8 c184 -94 136 -359 -71 -397 -84 -15 -188 49 -225 136 -31 75
-12 162 50 223 69 70 156 83 246 38z m-15987 -978 c78 -37 120 -159 81 -236
-62 -122 -194 -152 -292 -66 -133 117 -44 337 132 323 23 -2 58 -11 79 -21z
m15169 -159 c80 -43 112 -159 68 -244 -23 -46 -46 -67 -94 -87 -52 -21 -96
-19 -153 10 -88 44 -125 137 -90 228 42 111 162 152 269 93z m-16460 -357
c114 -31 179 -174 128 -284 -63 -136 -230 -166 -336 -60 -34 34 -45 54 -55 98
-33 161 105 290 263 246z m17672 -8 c131 -59 165 -231 67 -334 -97 -103 -270
-84 -338 37 -31 55 -36 104 -18 165 36 121 174 185 289 132z m-16636 -821
c133 -68 132 -264 -1 -329 -120 -58 -255 16 -266 144 -2 30 -2 65 2 79 9 35
64 96 101 112 45 20 120 17 164 -6z m15639 -157 c59 -28 102 -101 102 -173 0
-34 -32 -100 -61 -127 -32 -29 -91 -53 -131 -53 -106 1 -204 115 -182 213 29
135 150 197 272 140z m1100 -565 c67 -17 135 -87 151 -156 31 -127 -75 -263
-206 -262 -41 0 -115 30 -146 58 -27 24 -55 83 -63 129 -14 91 54 200 145 227
58 18 62 18 119 4z m-17856 -34 c101 -69 118 -224 35 -312 -59 -63 -168 -82
-245 -43 -148 76 -150 290 -2 369 64 34 152 28 212 -14z m1113 -617 c67 -37
106 -130 85 -206 -21 -78 -101 -141 -180 -141 -47 0 -110 30 -142 68 -69 82
-58 203 24 266 66 49 138 54 213 13z m15596 -139 c84 -28 129 -90 129 -178 0
-201 -268 -259 -351 -75 -45 98 4 214 108 250 47 17 71 18 114 3z m1070 -792
c78 -52 117 -156 89 -241 -16 -47 -75 -114 -117 -132 -76 -31 -186 -9 -240 49
-50 53 -69 162 -39 231 48 114 203 161 307 93z m-17663 3 c51 -25 97 -89 107
-151 25 -145 -126 -274 -266 -227 -104 35 -160 135 -137 242 12 56 64 122 113
143 47 21 132 17 183 -7z m1212 -414 c56 -29 100 -103 100 -168 0 -107 -108
-199 -214 -183 -93 15 -156 90 -156 187 0 138 146 227 270 164z m15160 -155
c21 -11 51 -36 67 -57 25 -32 28 -45 28 -108 0 -63 -3 -76 -28 -108 -70 -92
-215 -102 -289 -20 -48 53 -60 141 -29 208 43 94 157 133 251 85z m-16039
-970 c17 0 19 -8 19 -85 0 -78 2 -85 20 -85 18 0 20 -7 20 -85 l0 -84 -41 -11
c-90 -24 -200 34 -235 125 -45 118 32 254 155 275 34 5 36 4 39 -22 2 -20 9
-28 23 -28z m16915 34 c21 -12 52 -40 69 -63 25 -35 30 -54 33 -114 4 -68 2
-75 -30 -121 -84 -125 -254 -129 -345 -9 -104 139 4 342 178 331 30 -2 73 -13
95 -24z m-15573 -207 c126 -70 116 -268 -17 -328 -96 -43 -202 -2 -247 96 -47
102 10 222 121 253 44 13 95 5 143 -21z m14204 -132 c72 -30 113 -93 113 -170
0 -104 -81 -185 -185 -185 -104 0 -185 81 -185 185 0 48 25 108 57 137 51 46
135 60 200 33z m-13529 -1061 c33 -19 50 -39 68 -77 27 -58 28 -75 14 -129
-34 -122 -188 -178 -285 -104 -78 60 -101 140 -64 226 45 104 166 143 267 84z
m14237 -16 c36 -19 67 -52 89 -95 21 -41 21 -135 0 -179 -41 -85 -153 -138
-242 -115 -47 13 -115 68 -137 112 -66 126 20 282 165 301 35 5 90 -6 125 -24z
m-15754 -78 c16 0 19 -7 19 -40 0 -33 3 -40 20 -40 17 0 20 -7 20 -40 0 -33 3
-40 20 -40 17 0 20 -7 20 -45 0 -41 2 -45 25 -45 21 0 25 -5 25 -30 0 -25 -4
-30 -24 -30 -70 0 -137 46 -173 117 -21 44 -25 63 -20 103 6 52 37 124 44 103
3 -7 13 -13 24 -13z m14366 -31 c72 -35 114 -129 93 -208 -33 -122 -182 -180
-285 -110 -52 35 -90 116 -81 176 18 132 151 201 273 142z m-12023 -911 c132
-40 174 -210 75 -309 -56 -56 -128 -72 -197 -44 -49 21 -81 52 -103 100 -45
98 4 214 108 250 48 18 66 18 117 3z m11140 -132 c69 -40 106 -130 86 -205
-30 -111 -159 -172 -259 -121 -106 53 -140 175 -76 272 51 77 167 102 249 54z
m1353 -117 c44 -14 109 -88 123 -140 26 -95 -22 -198 -113 -246 -46 -23 -132
-21 -183 5 -174 89 -141 347 49 393 34 8 71 4 124 -12z m-13987 -244 c0 -20 5
-25 25 -25 23 0 25 -4 25 -40 0 -33 3 -40 20 -40 11 0 20 -7 20 -16 0 -22 -53
17 -79 59 -25 41 -37 87 -22 87 6 0 11 -11 11 -25z m2575 -418 c112 -62 116
-240 7 -312 -98 -64 -224 -28 -273 80 -24 51 -24 99 0 150 49 106 160 140 266
82z m8950 -68 c178 -49 193 -282 23 -354 -103 -42 -217 18 -247 130 -19 72 21
170 82 202 65 33 88 37 142 22z m1374 -385 c87 -44 127 -132 107 -239 -14 -74
-117 -154 -197 -155 -121 -1 -211 90 -211 211 0 84 36 143 111 182 70 35 121
35 190 1z m-9172 -229 c72 -30 113 -93 113 -170 0 -60 -19 -103 -63 -142 -122
-107 -318 -9 -305 153 11 129 138 208 255 159z m6661 -81 c33 -19 50 -39 68
-77 13 -29 24 -61 24 -72 0 -42 -22 -97 -53 -132 -75 -85 -199 -85 -274 0 -30
35 -53 90 -53 130 0 10 10 41 22 69 44 102 167 140 266 82z m-5381 -399 c74
-31 113 -92 113 -175 0 -57 -10 -81 -49 -123 -37 -41 -75 -58 -129 -58 -85 -1
-149 41 -178 116 -58 154 93 303 243 240z m4068 -44 c83 -37 128 -127 106
-211 -24 -89 -93 -144 -181 -144 -122 0 -212 116 -180 232 21 79 101 142 180
142 19 0 53 -9 75 -19z m2533 -136 c77 -33 121 -102 122 -193 0 -117 -86 -202
-205 -202 -118 0 -205 85 -205 200 0 57 20 113 53 149 52 56 159 77 235 46z
m-5260 -70 c49 -21 81 -52 103 -100 23 -49 24 -94 4 -143 -32 -75 -90 -115
-170 -115 -164 -2 -249 185 -141 308 51 59 133 79 204 50z m1392 -25 c46 -24
75 -62 91 -121 38 -145 -118 -273 -256 -210 -110 50 -145 183 -74 283 47 65
160 88 239 48z m2448 -566 c137 -57 172 -236 65 -335 -50 -47 -90 -62 -159
-57 -47 3 -71 10 -101 31 -76 52 -108 147 -79 234 38 113 165 173 274 127z
m-1414 -487 c32 -54 40 -104 27 -154 -27 -100 -96 -153 -202 -153 -55 0 -72 5
-111 29 -53 34 -89 99 -90 164 -1 74 7 87 58 87 37 0 44 3 44 20 0 17 7 20 45
20 38 0 45 3 45 20 0 16 8 19 63 22 78 4 90 -2 121 -55z m-3314 -257 c0 -13 7
-20 20 -20 13 0 20 7 20 20 0 17 7 20 45 20 41 0 45 -2 45 -25 0 -64 -176 -61
-234 4 l-19 21 61 0 c55 0 62 -2 62 -20z m1710 0 c0 -13 7 -20 20 -20 13 0 20
7 20 20 0 13 7 20 20 20 23 0 25 -16 8 -74 -35 -115 -180 -169 -295 -109 -41
22 -65 50 -88 106 l-15 37 125 0 c118 0 125 1 125 20 0 17 7 20 40 20 33 0 40
-3 40 -20z"/>
<path d="M9000 16203 c-25 -2 -104 -12 -175 -23 -1026 -147 -1894 -788 -2291
-1689 -169 -384 -254 -811 -254 -1276 0 -1094 458 -2090 1444 -3138 415 -441
892 -862 1746 -1542 1190 -947 1401 -1126 1760 -1491 314 -320 512 -580 650
-853 l32 -64 59 113 c144 274 332 513 659 841 303 304 609 568 1219 1052 885
703 1153 922 1456 1187 477 417 905 853 1211 1235 593 739 926 1491 1009 2281
18 171 21 556 5 714 -71 711 -346 1308 -824 1786 -497 497 -1148 796 -1879
865 -180 16 -532 7 -707 -20 -586 -90 -1092 -340 -1485 -735 -139 -139 -215
-234 -331 -407 -147 -220 -291 -535 -365 -797 -12 -45 -26 -79 -30 -75 -4 5
-19 51 -34 103 -70 243 -212 550 -353 765 -434 662 -1111 1068 -1937 1160
-118 14 -461 18 -585 8z"/>
</g>
</svg>
